PathFileType	4	(X/Y/Z)	C:/Users/beibeiliu/ov580/test_trc\sequence.11_training_dense_left.trc
DataRate	CameraRate	NumFrames	NumMarkers	Units	OrigDataRate	OrigDataStartFrame	OrigNumFrames
120	120	7	19	mm	120	51	100
Frame#	Time	ThumbCMC			ThumbMCP			ThumbIP			ThumbTip			IndexMCP			IndexPIP			IndexTip			MiddleMCP			MiddlePIP			MiddleTip			RingMCP			RingPIP			RingTip			PinkyMCP			PinkyPIP			PinkyTip			BackHand1			BackHand2			BackHand3	
		X0	Y0	Z0	X1	Y1	Z1	X2	Y2	Z2	X3	Y3	Z3	X4	Y4	Z4	X5	Y5	Z5	X6	Y6	Z6	X7	Y7	Z7	X8	Y8	Z8	X9	Y9	Z9	X10	Y10	Z10	X11	Y11	Z11	X12	Y12	Z12	X13	Y13	Z13	X14	Y14	Z14	X15	Y15	Z15	X16	Y16	Z16	X17	Y17	Z17	X18	Y18	Z18	
50	0.416667	-191.541	36.156	36.6147	-174.566	55.9955	14.8266	-153.066	59.8228	4.97523	-126.597	58.6897	2.17815	-159.618	30.3515	-20.9772	-144.634	36.2875	-41.739	-138.762	45.4686	-58.8273	-130.927	26.8843	-13.556	-113.734	42.385	-26.4983	-96.6387	60.0111	-32.7364	-120.672	32.8659	7.26301	-121.906	59.025	22.8373	-144.425	51.4472	39.8995	-113.346	30.4382	24.3225	-119.461	50.3576	34.3477	-144.137	45.8443	42.0696	-149.651	-2.90188	31.4181	-164.044	-8.33108	50.6505	-177.237	3.58056	28.4769	
51	0.425	-194.166	27.6622	34.1902	-181.898	45.0014	6.66136	-159.747	43.1342	-5.55756	-132.147	39.0996	-10.8916	-167.735	5.7559	-25.4906	-160.404	7.92794	-47.015	-152.232	9.42795	-69.4136	-141.28	4.55465	-19.9371	-129.683	13.0651	-38.4285	-106.602	29.1645	-55.8177	-128.92	18.0314	-3.95921	-130.136	45.2688	3.5695	-144.157	43.863	26.1559	-116.322	15.2555	15.7932	-126.8	40.3119	19.2756	-147.558	33.7613	29.4017	-153.018	-11.3149	30.4863	-162.98	-12.3295	55.8889	-182.449	-6.39223	30.1609	
52	0.433333	-195.828	16.6046	32.5564	-188.252	28.4763	5.33095	-166.322	22.3334	-17.5088	-143.173	17.7091	-18.9117	-178.718	-17.3068	-19.2649	-174.477	-21.7302	-41.4397	-168.581	-25.4261	-65.1666	-150.084	-19.5846	-21.0917	-143.097	-16.7688	-40.1648	-128.334	-8.78181	-63.2526	-135.16	-2.86705	-4.52139	-137.223	25.2956	-8.58351	-151.034	31.0211	15.9496	-124.558	1.03808	9.66383	-133.708	25.1773	8.39172	-153.942	24.4886	26.7861	-158.998	-19.676	33.4174	-167.372	-16.4911	62.9869	-188.121	-14.8424	34.4482	
53	0.441667	-204.026	14.9988	34.9426	-194.559	15.7146	0.562161	-177.312	7.37801	-18.189	-156.943	-0.378061	-20.843	-195.123	-31.7525	-10.8721	-193.709	-41.0408	-33.8318	-192.549	-47.7872	-52.9614	-170.977	-38.2913	-15.8809	-159.546	-42.7637	-37.0914	-146.19	-43.0248	-58.4336	-152.734	-21.2597	-7.92633	-145.678	2.87401	-14.0153	-158.081	18.125	4.57811	-138.953	-18.6256	7.33436	-142.546	5.51855	-0.232377	-159.43	13.6503	16.8737	-168.608	-29.187	44.2432	-176.178	-19.0842	65.3708	-199.04	-19.0685	40.8971	
54	0.45	-207.927	13.3558	33.9044	-199.82	13.0626	5.25193	-187.338	-0.642502	-14.9976	-169.192	-13.337	-19.4487	-211.982	-36.8156	-3.24809	-214.675	-50.372	-26.1752	-215.252	-57.952	-42.6592	-187.337	-50.0859	-3.0347	-182.488	-58.9615	-28.56	-172.583	-65.4459	-51.4971	-164.965	-37.2761	-0.15479	-154.69	-13.586	-13.1236	-163.975	3.96207	3.36835	-151.747	-33.5101	8.67131	-150.229	-12.0411	-0.998414	-164.266	1.10624	15.2274	-181.545	-33.711	48.0332	-181.869	-17.3902	70.5603	-207.28	-14.8974	47.7833	
55	0.458333	-205.567	19.7852	38.5626	-201.571	15.4843	5.45989	-193.792	-1.23043	-9.06864	-180.106	-20.0239	-20.6741	-227.695	-27.8757	5.3806	-234.526	-40.7158	-16.3314	-239.859	-51.19	-35.1685	-213.134	-47.2851	4.58923	-213.249	-61.6219	-18.9192	-204.027	-72.4516	-38.2203	-189.03	-42.0805	5.49857	-169.657	-24.0606	-12.0936	-169.787	-4.57026	4.01516	-170.192	-44.5934	14.4687	-163.652	-26.8411	-0.244335	-166.715	-3.86405	18.3676	-197.234	-28.2863	52.0215	-194.469	-14.0652	72.0627	-215.161	-6.19132	56.4208	
56	0.466667	-205.257	27.9973	39.491	-202.336	24.0546	7.36591	-201.11	6.1314	-10.9637	-193.178	-15.1043	-19.1991	-243.644	-9.73016	7.24791	-253.571	-17.7172	-12.0258	-262.076	-25.2253	-29.7853	-235.05	-35.3515	7.8648	-239.142	-50.057	-13.6092	-237.575	-64.3844	-35.4627	-208.127	-37.079	7.93862	-186.118	-26.4812	-10.4243	-179.931	-5.70023	6.16053	-193.683	-42.7383	18.6284	-179.992	-31.3001	0.920916	-172.499	-7.81846	15.6321	-210.981	-26.8517	53.0574	-200.611	-10.8224	78.0961	-220.641	5.30484	54.6609	
